<?xml version="1.0"?>
<!-- Generated by SVGo -->
<svg width="1000" height="660"
     xmlns="http://www.w3.org/2000/svg"
     xmlns:xlink="http://www.w3.org/1999/xlink">
<rect x="0" y="0" width="1000" height="660" rx="5" ry="5" style="fill:#282d35" />
<circle cx="20" cy="20" r="7" style="fill:#ff5f58" />
<circle cx="43" cy="20" r="7" style="fill:#ffbd2e" />
<circle cx="66" cy="20" r="7" style="fill:#18c132" />
<g transform="translate(20,60)" >
<g style="animation-duration:19.10s;animation-iteration-count:infinite;animation-name:k;animation-timing-function:steps(1,end);font-family:Monaco,Consolas,Menlo,'Bitstream Vera Sans Mono','Powerline Symbols',monospace;font-size:20px">
<style type="text/css">
<![CDATA[
@keyframes k {0.469%{transform:translateX(-0px)}0.501%{transform:translateX(-1000px)}1.027%{transform:translateX(-2000px)}1.554%{transform:translateX(-3000px)}2.088%{transform:translateX(-4000px)}2.619%{transform:translateX(-5000px)}3.671%{transform:translateX(-6000px)}4.206%{transform:translateX(-7000px)}4.741%{transform:translateX(-8000px)}5.267%{transform:translateX(-9000px)}5.804%{transform:translateX(-10000px)}6.333%{transform:translateX(-11000px)}7.390%{transform:translateX(-12000px)}7.916%{transform:translateX(-13000px)}8.450%{transform:translateX(-14000px)}8.982%{transform:translateX(-15000px)}9.513%{transform:translateX(-16000px)}10.044%{transform:translateX(-17000px)}20.523%{transform:translateX(-18000px)}20.529%{transform:translateX(-19000px)}20.634%{transform:translateX(-20000px)}34.209%{transform:translateX(-21000px)}34.749%{transform:translateX(-22000px)}35.810%{transform:translateX(-23000px)}41.061%{transform:translateX(-24000px)}41.061%{transform:translateX(-25000px)}46.822%{transform:translateX(-26000px)}52.079%{transform:translateX(-27000px)}67.792%{transform:translateX(-28000px)}67.795%{transform:translateX(-29000px)}67.905%{transform:translateX(-30000px)}81.465%{transform:translateX(-31000px)}81.993%{transform:translateX(-32000px)}82.525%{transform:translateX(-33000px)}83.582%{transform:translateX(-34000px)}84.116%{transform:translateX(-35000px)}84.645%{transform:translateX(-36000px)}85.177%{transform:translateX(-37000px)}85.710%{transform:translateX(-38000px)}86.244%{transform:translateX(-39000px)}87.819%{transform:translateX(-40000px)}88.356%{transform:translateX(-41000px)}88.884%{transform:translateX(-42000px)}89.418%{transform:translateX(-43000px)}99.911%{transform:translateX(-44000px)}99.922%{transform:translateX(-45000px)}99.925%{transform:translateX(-46000px)}100.000%{transform:translateX(-47000px)}}.a{fill:#e5e5e5}.b{fill:#00ffff}.c{fill:#ff00ff}.d{fill:#00ff00}
]]>
</style>
<g transform="translate(0)">
</g>
<g transform="translate(1000)">
<text x="0" y="25" class="b"  >demo</text>
<text x="60" y="25" class="a"  >on</text>
<text x="96" y="25" class="c"  >main</text>
<text x="0" y="50" class="d"  >❯</text>
</g>
<g transform="translate(2000)">
<text x="0" y="25" class="b"  >demo</text>
<text x="60" y="25" class="a"  >on</text>
<text x="96" y="25" class="c"  >main</text>
<text x="0" y="50" class="d"  >❯</text>
<text x="24" y="50" class="a"  >e</text>
</g>
<g transform="translate(3000)">
<text x="0" y="25" class="b"  >demo</text>
<text x="60" y="25" class="a"  >on</text>
<text x="96" y="25" class="c"  >main</text>
<text x="0" y="50" class="d"  >❯</text>
<text x="24" y="50" class="a"  >ec</text>
</g>
<g transform="translate(4000)">
<text x="0" y="25" class="b"  >demo</text>
<text x="60" y="25" class="a"  >on</text>
<text x="96" y="25" class="c"  >main</text>
<text x="0" y="50" class="d"  >❯</text>
<text x="24" y="50" class="a"  >ech</text>
</g>
<g transform="translate(5000)">
<text x="0" y="25" class="b"  >demo</text>
<text x="60" y="25" class="a"  >on</text>
<text x="96" y="25" class="c"  >main</text>
<text x="0" y="50" class="d"  >❯</text>
<text x="24" y="50" class="a"  >echo</text>
</g>
<g transform="translate(6000)">
<text x="0" y="25" class="b"  >demo</text>
<text x="60" y="25" class="a"  >on</text>
<text x="96" y="25" class="c"  >main</text>
<text x="0" y="50" class="d"  >❯</text>
<text x="24" y="50" class="a"  >echo</text>
</g>
<g transform="translate(7000)">
<text x="0" y="25" class="b"  >demo</text>
<text x="60" y="25" class="a"  >on</text>
<text x="96" y="25" class="c"  >main</text>
<text x="0" y="50" class="d"  >❯</text>
<text x="24" y="50" class="a"  >echo</text>
<text x="84" y="50" class="a"  >h</text>
</g>
<g transform="translate(8000)">
<text x="0" y="25" class="b"  >demo</text>
<text x="60" y="25" class="a"  >on</text>
<text x="96" y="25" class="c"  >main</text>
<text x="0" y="50" class="d"  >❯</text>
<text x="24" y="50" class="a"  >echo</text>
<text x="84" y="50" class="a"  >he</text>
</g>
<g transform="translate(9000)">
<text x="0" y="25" class="b"  >demo</text>
<text x="60" y="25" class="a"  >on</text>
<text x="96" y="25" class="c"  >main</text>
<text x="0" y="50" class="d"  >❯</text>
<text x="24" y="50" class="a"  >echo</text>
<text x="84" y="50" class="a"  >hel</text>
</g>
<g transform="translate(10000)">
<text x="0" y="25" class="b"  >demo</text>
<text x="60" y="25" class="a"  >on</text>
<text x="96" y="25" class="c"  >main</text>
<text x="0" y="50" class="d"  >❯</text>
<text x="24" y="50" class="a"  >echo</text>
<text x="84" y="50" class="a"  >hell</text>
</g>
<g transform="translate(11000)">
<text x="0" y="25" class="b"  >demo</text>
<text x="60" y="25" class="a"  >on</text>
<text x="96" y="25" class="c"  >main</text>
<text x="0" y="50" class="d"  >❯</text>
<text x="24" y="50" class="a"  >echo</text>
<text x="84" y="50" class="a"  >hello</text>
</g>
<g transform="translate(12000)">
<text x="0" y="25" class="b"  >demo</text>
<text x="60" y="25" class="a"  >on</text>
<text x="96" y="25" class="c"  >main</text>
<text x="0" y="50" class="d"  >❯</text>
<text x="24" y="50" class="a"  >echo</text>
<text x="84" y="50" class="a"  >hello</text>
</g>
<g transform="translate(13000)">
<text x="0" y="25" class="b"  >demo</text>
<text x="60" y="25" class="a"  >on</text>
<text x="96" y="25" class="c"  >main</text>
<text x="0" y="50" class="d"  >❯</text>
<text x="24" y="50" class="a"  >echo</text>
<text x="84" y="50" class="a"  >hello</text>
<text x="156" y="50" class="a"  >w</text>
</g>
<g transform="translate(14000)">
<text x="0" y="25" class="b"  >demo</text>
<text x="60" y="25" class="a"  >on</text>
<text x="96" y="25" class="c"  >main</text>
<text x="0" y="50" class="d"  >❯</text>
<text x="24" y="50" class="a"  >echo</text>
<text x="84" y="50" class="a"  >hello</text>
<text x="156" y="50" class="a"  >wo</text>
</g>
<g transform="translate(15000)">
<text x="0" y="25" class="b"  >demo</text>
<text x="60" y="25" class="a"  >on</text>
<text x="96" y="25" class="c"  >main</text>
<text x="0" y="50" class="d"  >❯</text>
<text x="24" y="50" class="a"  >echo</text>
<text x="84" y="50" class="a"  >hello</text>
<text x="156" y="50" class="a"  >wor</text>
</g>
<g transform="translate(16000)">
<text x="0" y="25" class="b"  >demo</text>
<text x="60" y="25" class="a"  >on</text>
<text x="96" y="25" class="c"  >main</text>
<text x="0" y="50" class="d"  >❯</text>
<text x="24" y="50" class="a"  >echo</text>
<text x="84" y="50" class="a"  >hello</text>
<text x="156" y="50" class="a"  >worl</text>
</g>
<g transform="translate(17000)">
<text x="0" y="25" class="b"  >demo</text>
<text x="60" y="25" class="a"  >on</text>
<text x="96" y="25" class="c"  >main</text>
<text x="0" y="50" class="d"  >❯</text>
<text x="24" y="50" class="a"  >echo</text>
<text x="84" y="50" class="a"  >hello</text>
<text x="156" y="50" class="a"  >world</text>
</g>
<g transform="translate(18000)">
<text x="0" y="25" class="b"  >demo</text>
<text x="60" y="25" class="a"  >on</text>
<text x="96" y="25" class="c"  >main</text>
<text x="0" y="50" class="d"  >❯</text>
<text x="24" y="50" class="a"  >echo</text>
<text x="84" y="50" class="a"  >hello</text>
<text x="156" y="50" class="a"  >world</text>
</g>
<g transform="translate(19000)">
<text x="0" y="25" class="b"  >demo</text>
<text x="60" y="25" class="a"  >on</text>
<text x="96" y="25" class="c"  >main</text>
<text x="0" y="50" class="d"  >❯</text>
<text x="24" y="50" class="a"  >echo</text>
<text x="84" y="50" class="a"  >hello</text>
<text x="156" y="50" class="a"  >world</text>
<text x="0" y="75" class="a"  >hello</text>
<text x="72" y="75" class="a"  >world</text>
</g>
<g transform="translate(20000)">
<text x="0" y="25" class="b"  >demo</text>
<text x="60" y="25" class="a"  >on</text>
<text x="96" y="25" class="c"  >main</text>
<text x="0" y="50" class="d"  >❯</text>
<text x="24" y="50" class="a"  >echo</text>
<text x="84" y="50" class="a"  >hello</text>
<text x="156" y="50" class="a"  >world</text>
<text x="0" y="75" class="a"  >hello</text>
<text x="72" y="75" class="a"  >world</text>
<text x="0" y="125" class="b"  >demo</text>
<text x="60" y="125" class="a"  >on</text>
<text x="96" y="125" class="c"  >main</text>
<text x="0" y="150" class="d"  >❯</text>
</g>
<g transform="translate(21000)">
<text x="0" y="25" class="b"  >demo</text>
<text x="60" y="25" class="a"  >on</text>
<text x="96" y="25" class="c"  >main</text>
<text x="0" y="50" class="d"  >❯</text>
<text x="24" y="50" class="a"  >echo</text>
<text x="84" y="50" class="a"  >hello</text>
<text x="156" y="50" class="a"  >world</text>
<text x="0" y="75" class="a"  >hello</text>
<text x="72" y="75" class="a"  >world</text>
<text x="0" y="125" class="b"  >demo</text>
<text x="60" y="125" class="a"  >on</text>
<text x="96" y="125" class="c"  >main</text>
<text x="0" y="150" class="d"  >❯</text>
<text x="24" y="150" class="a"  >c</text>
</g>
<g transform="translate(22000)">
<text x="0" y="25" class="b"  >demo</text>
<text x="60" y="25" class="a"  >on</text>
<text x="96" y="25" class="c"  >main</text>
<text x="0" y="50" class="d"  >❯</text>
<text x="24" y="50" class="a"  >echo</text>
<text x="84" y="50" class="a"  >hello</text>
<text x="156" y="50" class="a"  >world</text>
<text x="0" y="75" class="a"  >hello</text>
<text x="72" y="75" class="a"  >world</text>
<text x="0" y="125" class="b"  >demo</text>
<text x="60" y="125" class="a"  >on</text>
<text x="96" y="125" class="c"  >main</text>
<text x="0" y="150" class="d"  >❯</text>
<text x="24" y="150" class="a"  >cd</text>
</g>
<g transform="translate(23000)">
<text x="0" y="25" class="b"  >demo</text>
<text x="60" y="25" class="a"  >on</text>
<text x="96" y="25" class="c"  >main</text>
<text x="0" y="50" class="d"  >❯</text>
<text x="24" y="50" class="a"  >echo</text>
<text x="84" y="50" class="a"  >hello</text>
<text x="156" y="50" class="a"  >world</text>
<text x="0" y="75" class="a"  >hello</text>
<text x="72" y="75" class="a"  >world</text>
<text x="0" y="125" class="b"  >demo</text>
<text x="60" y="125" class="a"  >on</text>
<text x="96" y="125" class="c"  >main</text>
<text x="0" y="150" class="d"  >❯</text>
<text x="24" y="150" class="a"  >cd</text>
</g>
<g transform="translate(24000)">
<text x="0" y="25" class="b"  >demo</text>
<text x="60" y="25" class="a"  >on</text>
<text x="96" y="25" class="c"  >main</text>
<text x="0" y="50" class="d"  >❯</text>
<text x="24" y="50" class="a"  >echo</text>
<text x="84" y="50" class="a"  >hello</text>
<text x="156" y="50" class="a"  >world</text>
<text x="0" y="75" class="a"  >hello</text>
<text x="72" y="75" class="a"  >world</text>
<text x="0" y="125" class="b"  >demo</text>
<text x="60" y="125" class="a"  >on</text>
<text x="96" y="125" class="c"  >main</text>
<text x="0" y="150" class="d"  >❯</text>
<text x="24" y="150" class="a"  >cd</text>
</g>
<g transform="translate(25000)">
<text x="0" y="25" class="b"  >demo</text>
<text x="60" y="25" class="a"  >on</text>
<text x="96" y="25" class="c"  >main</text>
<text x="0" y="50" class="d"  >❯</text>
<text x="24" y="50" class="a"  >echo</text>
<text x="84" y="50" class="a"  >hello</text>
<text x="156" y="50" class="a"  >world</text>
<text x="0" y="75" class="a"  >hello</text>
<text x="72" y="75" class="a"  >world</text>
<text x="0" y="125" class="b"  >demo</text>
<text x="60" y="125" class="a"  >on</text>
<text x="96" y="125" class="c"  >main</text>
<text x="0" y="150" class="d"  >❯</text>
<text x="24" y="150" class="a"  >cd</text>
<text x="0" y="175" class="a"  >Dockerfile</text>
<text x="144" y="175" class="a"  >LICENSE</text>
<text x="288" y="175" class="a"  >README.md</text>
<text x="432" y="175" class="a"  >demo/</text>
<text x="576" y="175" class="a"  >script/</text>
</g>
<g transform="translate(26000)">
<text x="0" y="25" class="b"  >demo</text>
<text x="60" y="25" class="a"  >on</text>
<text x="96" y="25" class="c"  >main</text>
<text x="0" y="50" class="d"  >❯</text>
<text x="24" y="50" class="a"  >echo</text>
<text x="84" y="50" class="a"  >hello</text>
<text x="156" y="50" class="a"  >world</text>
<text x="0" y="75" class="a"  >hello</text>
<text x="72" y="75" class="a"  >world</text>
<text x="0" y="125" class="b"  >demo</text>
<text x="60" y="125" class="a"  >on</text>
<text x="96" y="125" class="c"  >main</text>
<text x="0" y="150" class="d"  >❯</text>
<text x="24" y="150" class="a"  >cd</text>
<text x="60" y="150" class="a"  >d</text>
<text x="0" y="175" class="a"  >Dockerfile</text>
<text x="144" y="175" class="a"  >LICENSE</text>
<text x="288" y="175" class="a"  >README.md</text>
<text x="432" y="175" class="a"  >demo/</text>
<text x="576" y="175" class="a"  >script/</text>
</g>
<g transform="translate(27000)">
<text x="0" y="25" class="b"  >demo</text>
<text x="60" y="25" class="a"  >on</text>
<text x="96" y="25" class="c"  >main</text>
<text x="0" y="50" class="d"  >❯</text>
<text x="24" y="50" class="a"  >echo</text>
<text x="84" y="50" class="a"  >hello</text>
<text x="156" y="50" class="a"  >world</text>
<text x="0" y="75" class="a"  >hello</text>
<text x="72" y="75" class="a"  >world</text>
<text x="0" y="125" class="b"  >demo</text>
<text x="60" y="125" class="a"  >on</text>
<text x="96" y="125" class="c"  >main</text>
<text x="0" y="150" class="d"  >❯</text>
<text x="24" y="150" class="a"  >cd</text>
<text x="60" y="150" class="a"  >demo/</text>
<text x="0" y="175" class="a"  >Dockerfile</text>
<text x="144" y="175" class="a"  >LICENSE</text>
<text x="288" y="175" class="a"  >README.md</text>
<text x="432" y="175" class="a"  >demo/</text>
<text x="576" y="175" class="a"  >script/</text>
</g>
<g transform="translate(28000)">
<text x="0" y="25" class="b"  >demo</text>
<text x="60" y="25" class="a"  >on</text>
<text x="96" y="25" class="c"  >main</text>
<text x="0" y="50" class="d"  >❯</text>
<text x="24" y="50" class="a"  >echo</text>
<text x="84" y="50" class="a"  >hello</text>
<text x="156" y="50" class="a"  >world</text>
<text x="0" y="75" class="a"  >hello</text>
<text x="72" y="75" class="a"  >world</text>
<text x="0" y="125" class="b"  >demo</text>
<text x="60" y="125" class="a"  >on</text>
<text x="96" y="125" class="c"  >main</text>
<text x="0" y="150" class="d"  >❯</text>
<text x="24" y="150" class="a"  >cd</text>
<text x="60" y="150" class="a"  >demo</text>
</g>
<g transform="translate(29000)">
<text x="0" y="25" class="b"  >demo</text>
<text x="60" y="25" class="a"  >on</text>
<text x="96" y="25" class="c"  >main</text>
<text x="0" y="50" class="d"  >❯</text>
<text x="24" y="50" class="a"  >echo</text>
<text x="84" y="50" class="a"  >hello</text>
<text x="156" y="50" class="a"  >world</text>
<text x="0" y="75" class="a"  >hello</text>
<text x="72" y="75" class="a"  >world</text>
<text x="0" y="125" class="b"  >demo</text>
<text x="60" y="125" class="a"  >on</text>
<text x="96" y="125" class="c"  >main</text>
<text x="0" y="150" class="d"  >❯</text>
<text x="24" y="150" class="a"  >cd</text>
<text x="60" y="150" class="a"  >demo</text>
</g>
<g transform="translate(30000)">
<text x="0" y="25" class="b"  >demo</text>
<text x="60" y="25" class="a"  >on</text>
<text x="96" y="25" class="c"  >main</text>
<text x="0" y="50" class="d"  >❯</text>
<text x="24" y="50" class="a"  >echo</text>
<text x="84" y="50" class="a"  >hello</text>
<text x="156" y="50" class="a"  >world</text>
<text x="0" y="75" class="a"  >hello</text>
<text x="72" y="75" class="a"  >world</text>
<text x="0" y="125" class="b"  >demo</text>
<text x="60" y="125" class="a"  >on</text>
<text x="96" y="125" class="c"  >main</text>
<text x="0" y="150" class="d"  >❯</text>
<text x="24" y="150" class="a"  >cd</text>
<text x="60" y="150" class="a"  >demo</text>
<text x="0" y="200" class="b"  >demo/demo</text>
<text x="120" y="200" class="a"  >on</text>
<text x="156" y="200" class="c"  >main</text>
<text x="0" y="225" class="d"  >❯</text>
</g>
<g transform="translate(31000)">
<text x="0" y="25" class="b"  >demo</text>
<text x="60" y="25" class="a"  >on</text>
<text x="96" y="25" class="c"  >main</text>
<text x="0" y="50" class="d"  >❯</text>
<text x="24" y="50" class="a"  >echo</text>
<text x="84" y="50" class="a"  >hello</text>
<text x="156" y="50" class="a"  >world</text>
<text x="0" y="75" class="a"  >hello</text>
<text x="72" y="75" class="a"  >world</text>
<text x="0" y="125" class="b"  >demo</text>
<text x="60" y="125" class="a"  >on</text>
<text x="96" y="125" class="c"  >main</text>
<text x="0" y="150" class="d"  >❯</text>
<text x="24" y="150" class="a"  >cd</text>
<text x="60" y="150" class="a"  >demo</text>
<text x="0" y="200" class="b"  >demo/demo</text>
<text x="120" y="200" class="a"  >on</text>
<text x="156" y="200" class="c"  >main</text>
<text x="0" y="225" class="d"  >❯</text>
<text x="24" y="225" class="a"  >c</text>
</g>
<g transform="translate(32000)">
<text x="0" y="25" class="b"  >demo</text>
<text x="60" y="25" class="a"  >on</text>
<text x="96" y="25" class="c"  >main</text>
<text x="0" y="50" class="d"  >❯</text>
<text x="24" y="50" class="a"  >echo</text>
<text x="84" y="50" class="a"  >hello</text>
<text x="156" y="50" class="a"  >world</text>
<text x="0" y="75" class="a"  >hello</text>
<text x="72" y="75" class="a"  >world</text>
<text x="0" y="125" class="b"  >demo</text>
<text x="60" y="125" class="a"  >on</text>
<text x="96" y="125" class="c"  >main</text>
<text x="0" y="150" class="d"  >❯</text>
<text x="24" y="150" class="a"  >cd</text>
<text x="60" y="150" class="a"  >demo</text>
<text x="0" y="200" class="b"  >demo/demo</text>
<text x="120" y="200" class="a"  >on</text>
<text x="156" y="200" class="c"  >main</text>
<text x="0" y="225" class="d"  >❯</text>
<text x="24" y="225" class="a"  >ca</text>
</g>
<g transform="translate(33000)">
<text x="0" y="25" class="b"  >demo</text>
<text x="60" y="25" class="a"  >on</text>
<text x="96" y="25" class="c"  >main</text>
<text x="0" y="50" class="d"  >❯</text>
<text x="24" y="50" class="a"  >echo</text>
<text x="84" y="50" class="a"  >hello</text>
<text x="156" y="50" class="a"  >world</text>
<text x="0" y="75" class="a"  >hello</text>
<text x="72" y="75" class="a"  >world</text>
<text x="0" y="125" class="b"  >demo</text>
<text x="60" y="125" class="a"  >on</text>
<text x="96" y="125" class="c"  >main</text>
<text x="0" y="150" class="d"  >❯</text>
<text x="24" y="150" class="a"  >cd</text>
<text x="60" y="150" class="a"  >demo</text>
<text x="0" y="200" class="b"  >demo/demo</text>
<text x="120" y="200" class="a"  >on</text>
<text x="156" y="200" class="c"  >main</text>
<text x="0" y="225" class="d"  >❯</text>
<text x="24" y="225" class="a"  >cat</text>
</g>
<g transform="translate(34000)">
<text x="0" y="25" class="b"  >demo</text>
<text x="60" y="25" class="a"  >on</text>
<text x="96" y="25" class="c"  >main</text>
<text x="0" y="50" class="d"  >❯</text>
<text x="24" y="50" class="a"  >echo</text>
<text x="84" y="50" class="a"  >hello</text>
<text x="156" y="50" class="a"  >world</text>
<text x="0" y="75" class="a"  >hello</text>
<text x="72" y="75" class="a"  >world</text>
<text x="0" y="125" class="b"  >demo</text>
<text x="60" y="125" class="a"  >on</text>
<text x="96" y="125" class="c"  >main</text>
<text x="0" y="150" class="d"  >❯</text>
<text x="24" y="150" class="a"  >cd</text>
<text x="60" y="150" class="a"  >demo</text>
<text x="0" y="200" class="b"  >demo/demo</text>
<text x="120" y="200" class="a"  >on</text>
<text x="156" y="200" class="c"  >main</text>
<text x="0" y="225" class="d"  >❯</text>
<text x="24" y="225" class="a"  >cat</text>
</g>
<g transform="translate(35000)">
<text x="0" y="25" class="b"  >demo</text>
<text x="60" y="25" class="a"  >on</text>
<text x="96" y="25" class="c"  >main</text>
<text x="0" y="50" class="d"  >❯</text>
<text x="24" y="50" class="a"  >echo</text>
<text x="84" y="50" class="a"  >hello</text>
<text x="156" y="50" class="a"  >world</text>
<text x="0" y="75" class="a"  >hello</text>
<text x="72" y="75" class="a"  >world</text>
<text x="0" y="125" class="b"  >demo</text>
<text x="60" y="125" class="a"  >on</text>
<text x="96" y="125" class="c"  >main</text>
<text x="0" y="150" class="d"  >❯</text>
<text x="24" y="150" class="a"  >cd</text>
<text x="60" y="150" class="a"  >demo</text>
<text x="0" y="200" class="b"  >demo/demo</text>
<text x="120" y="200" class="a"  >on</text>
<text x="156" y="200" class="c"  >main</text>
<text x="0" y="225" class="d"  >❯</text>
<text x="24" y="225" class="a"  >cat</text>
<text x="72" y="225" class="a"  >b</text>
</g>
<g transform="translate(36000)">
<text x="0" y="25" class="b"  >demo</text>
<text x="60" y="25" class="a"  >on</text>
<text x="96" y="25" class="c"  >main</text>
<text x="0" y="50" class="d"  >❯</text>
<text x="24" y="50" class="a"  >echo</text>
<text x="84" y="50" class="a"  >hello</text>
<text x="156" y="50" class="a"  >world</text>
<text x="0" y="75" class="a"  >hello</text>
<text x="72" y="75" class="a"  >world</text>
<text x="0" y="125" class="b"  >demo</text>
<text x="60" y="125" class="a"  >on</text>
<text x="96" y="125" class="c"  >main</text>
<text x="0" y="150" class="d"  >❯</text>
<text x="24" y="150" class="a"  >cd</text>
<text x="60" y="150" class="a"  >demo</text>
<text x="0" y="200" class="b"  >demo/demo</text>
<text x="120" y="200" class="a"  >on</text>
<text x="156" y="200" class="c"  >main</text>
<text x="0" y="225" class="d"  >❯</text>
<text x="24" y="225" class="a"  >cat</text>
<text x="72" y="225" class="a"  >ba</text>
</g>
<g transform="translate(37000)">
<text x="0" y="25" class="b"  >demo</text>
<text x="60" y="25" class="a"  >on</text>
<text x="96" y="25" class="c"  >main</text>
<text x="0" y="50" class="d"  >❯</text>
<text x="24" y="50" class="a"  >echo</text>
<text x="84" y="50" class="a"  >hello</text>
<text x="156" y="50" class="a"  >world</text>
<text x="0" y="75" class="a"  >hello</text>
<text x="72" y="75" class="a"  >world</text>
<text x="0" y="125" class="b"  >demo</text>
<text x="60" y="125" class="a"  >on</text>
<text x="96" y="125" class="c"  >main</text>
<text x="0" y="150" class="d"  >❯</text>
<text x="24" y="150" class="a"  >cd</text>
<text x="60" y="150" class="a"  >demo</text>
<text x="0" y="200" class="b"  >demo/demo</text>
<text x="120" y="200" class="a"  >on</text>
<text x="156" y="200" class="c"  >main</text>
<text x="0" y="225" class="d"  >❯</text>
<text x="24" y="225" class="a"  >cat</text>
<text x="72" y="225" class="a"  >bas</text>
</g>
<g transform="translate(38000)">
<text x="0" y="25" class="b"  >demo</text>
<text x="60" y="25" class="a"  >on</text>
<text x="96" y="25" class="c"  >main</text>
<text x="0" y="50" class="d"  >❯</text>
<text x="24" y="50" class="a"  >echo</text>
<text x="84" y="50" class="a"  >hello</text>
<text x="156" y="50" class="a"  >world</text>
<text x="0" y="75" class="a"  >hello</text>
<text x="72" y="75" class="a"  >world</text>
<text x="0" y="125" class="b"  >demo</text>
<text x="60" y="125" class="a"  >on</text>
<text x="96" y="125" class="c"  >main</text>
<text x="0" y="150" class="d"  >❯</text>
<text x="24" y="150" class="a"  >cd</text>
<text x="60" y="150" class="a"  >demo</text>
<text x="0" y="200" class="b"  >demo/demo</text>
<text x="120" y="200" class="a"  >on</text>
<text x="156" y="200" class="c"  >main</text>
<text x="0" y="225" class="d"  >❯</text>
<text x="24" y="225" class="a"  >cat</text>
<text x="72" y="225" class="a"  >basi</text>
</g>
<g transform="translate(39000)">
<text x="0" y="25" class="b"  >demo</text>
<text x="60" y="25" class="a"  >on</text>
<text x="96" y="25" class="c"  >main</text>
<text x="0" y="50" class="d"  >❯</text>
<text x="24" y="50" class="a"  >echo</text>
<text x="84" y="50" class="a"  >hello</text>
<text x="156" y="50" class="a"  >world</text>
<text x="0" y="75" class="a"  >hello</text>
<text x="72" y="75" class="a"  >world</text>
<text x="0" y="125" class="b"  >demo</text>
<text x="60" y="125" class="a"  >on</text>
<text x="96" y="125" class="c"  >main</text>
<text x="0" y="150" class="d"  >❯</text>
<text x="24" y="150" class="a"  >cd</text>
<text x="60" y="150" class="a"  >demo</text>
<text x="0" y="200" class="b"  >demo/demo</text>
<text x="120" y="200" class="a"  >on</text>
<text x="156" y="200" class="c"  >main</text>
<text x="0" y="225" class="d"  >❯</text>
<text x="24" y="225" class="a"  >cat</text>
<text x="72" y="225" class="a"  >basic</text>
</g>
<g transform="translate(40000)">
<text x="0" y="25" class="b"  >demo</text>
<text x="60" y="25" class="a"  >on</text>
<text x="96" y="25" class="c"  >main</text>
<text x="0" y="50" class="d"  >❯</text>
<text x="24" y="50" class="a"  >echo</text>
<text x="84" y="50" class="a"  >hello</text>
<text x="156" y="50" class="a"  >world</text>
<text x="0" y="75" class="a"  >hello</text>
<text x="72" y="75" class="a"  >world</text>
<text x="0" y="125" class="b"  >demo</text>
<text x="60" y="125" class="a"  >on</text>
<text x="96" y="125" class="c"  >main</text>
<text x="0" y="150" class="d"  >❯</text>
<text x="24" y="150" class="a"  >cd</text>
<text x="60" y="150" class="a"  >demo</text>
<text x="0" y="200" class="b"  >demo/demo</text>
<text x="120" y="200" class="a"  >on</text>
<text x="156" y="200" class="c"  >main</text>
<text x="0" y="225" class="d"  >❯</text>
<text x="24" y="225" class="a"  >cat</text>
<text x="72" y="225" class="a"  >basic.</text>
</g>
<g transform="translate(41000)">
<text x="0" y="25" class="b"  >demo</text>
<text x="60" y="25" class="a"  >on</text>
<text x="96" y="25" class="c"  >main</text>
<text x="0" y="50" class="d"  >❯</text>
<text x="24" y="50" class="a"  >echo</text>
<text x="84" y="50" class="a"  >hello</text>
<text x="156" y="50" class="a"  >world</text>
<text x="0" y="75" class="a"  >hello</text>
<text x="72" y="75" class="a"  >world</text>
<text x="0" y="125" class="b"  >demo</text>
<text x="60" y="125" class="a"  >on</text>
<text x="96" y="125" class="c"  >main</text>
<text x="0" y="150" class="d"  >❯</text>
<text x="24" y="150" class="a"  >cd</text>
<text x="60" y="150" class="a"  >demo</text>
<text x="0" y="200" class="b"  >demo/demo</text>
<text x="120" y="200" class="a"  >on</text>
<text x="156" y="200" class="c"  >main</text>
<text x="0" y="225" class="d"  >❯</text>
<text x="24" y="225" class="a"  >cat</text>
<text x="72" y="225" class="a"  >basic.t</text>
</g>
<g transform="translate(42000)">
<text x="0" y="25" class="b"  >demo</text>
<text x="60" y="25" class="a"  >on</text>
<text x="96" y="25" class="c"  >main</text>
<text x="0" y="50" class="d"  >❯</text>
<text x="24" y="50" class="a"  >echo</text>
<text x="84" y="50" class="a"  >hello</text>
<text x="156" y="50" class="a"  >world</text>
<text x="0" y="75" class="a"  >hello</text>
<text x="72" y="75" class="a"  >world</text>
<text x="0" y="125" class="b"  >demo</text>
<text x="60" y="125" class="a"  >on</text>
<text x="96" y="125" class="c"  >main</text>
<text x="0" y="150" class="d"  >❯</text>
<text x="24" y="150" class="a"  >cd</text>
<text x="60" y="150" class="a"  >demo</text>
<text x="0" y="200" class="b"  >demo/demo</text>
<text x="120" y="200" class="a"  >on</text>
<text x="156" y="200" class="c"  >main</text>
<text x="0" y="225" class="d"  >❯</text>
<text x="24" y="225" class="a"  >cat</text>
<text x="72" y="225" class="a"  >basic.tx</text>
</g>
<g transform="translate(43000)">
<text x="0" y="25" class="b"  >demo</text>
<text x="60" y="25" class="a"  >on</text>
<text x="96" y="25" class="c"  >main</text>
<text x="0" y="50" class="d"  >❯</text>
<text x="24" y="50" class="a"  >echo</text>
<text x="84" y="50" class="a"  >hello</text>
<text x="156" y="50" class="a"  >world</text>
<text x="0" y="75" class="a"  >hello</text>
<text x="72" y="75" class="a"  >world</text>
<text x="0" y="125" class="b"  >demo</text>
<text x="60" y="125" class="a"  >on</text>
<text x="96" y="125" class="c"  >main</text>
<text x="0" y="150" class="d"  >❯</text>
<text x="24" y="150" class="a"  >cd</text>
<text x="60" y="150" class="a"  >demo</text>
<text x="0" y="200" class="b"  >demo/demo</text>
<text x="120" y="200" class="a"  >on</text>
<text x="156" y="200" class="c"  >main</text>
<text x="0" y="225" class="d"  >❯</text>
<text x="24" y="225" class="a"  >cat</text>
<text x="72" y="225" class="a"  >basic.txt</text>
</g>
<g transform="translate(44000)">
<text x="0" y="25" class="b"  >demo</text>
<text x="60" y="25" class="a"  >on</text>
<text x="96" y="25" class="c"  >main</text>
<text x="0" y="50" class="d"  >❯</text>
<text x="24" y="50" class="a"  >echo</text>
<text x="84" y="50" class="a"  >hello</text>
<text x="156" y="50" class="a"  >world</text>
<text x="0" y="75" class="a"  >hello</text>
<text x="72" y="75" class="a"  >world</text>
<text x="0" y="125" class="b"  >demo</text>
<text x="60" y="125" class="a"  >on</text>
<text x="96" y="125" class="c"  >main</text>
<text x="0" y="150" class="d"  >❯</text>
<text x="24" y="150" class="a"  >cd</text>
<text x="60" y="150" class="a"  >demo</text>
<text x="0" y="200" class="b"  >demo/demo</text>
<text x="120" y="200" class="a"  >on</text>
<text x="156" y="200" class="c"  >main</text>
<text x="0" y="225" class="d"  >❯</text>
<text x="24" y="225" class="a"  >cat</text>
<text x="72" y="225" class="a"  >basic.txt</text>
</g>
<g transform="translate(45000)">
<text x="0" y="25" class="b"  >demo</text>
<text x="60" y="25" class="a"  >on</text>
<text x="96" y="25" class="c"  >main</text>
<text x="0" y="50" class="d"  >❯</text>
<text x="24" y="50" class="a"  >echo</text>
<text x="84" y="50" class="a"  >hello</text>
<text x="156" y="50" class="a"  >world</text>
<text x="0" y="75" class="a"  >hello</text>
<text x="72" y="75" class="a"  >world</text>
<text x="0" y="125" class="b"  >demo</text>
<text x="60" y="125" class="a"  >on</text>
<text x="96" y="125" class="c"  >main</text>
<text x="0" y="150" class="d"  >❯</text>
<text x="24" y="150" class="a"  >cd</text>
<text x="60" y="150" class="a"  >demo</text>
<text x="0" y="200" class="b"  >demo/demo</text>
<text x="120" y="200" class="a"  >on</text>
<text x="156" y="200" class="c"  >main</text>
<text x="0" y="225" class="d"  >❯</text>
<text x="24" y="225" class="a"  >cat</text>
<text x="72" y="225" class="a"  >basic.txt</text>
<text x="0" y="250" class="a"  >echo</text>
<text x="60" y="250" class="a"  >hello</text>
<text x="132" y="250" class="a"  >world</text>
<text x="0" y="275" class="a"  >cd</text>
<text x="36" y="275" class="a"  >\td\t</text>
<text x="0" y="300" class="a"  >cat</text>
<text x="48" y="300" class="a"  >basic.txt</text>
</g>
<g transform="translate(46000)">
<text x="0" y="25" class="b"  >demo</text>
<text x="60" y="25" class="a"  >on</text>
<text x="96" y="25" class="c"  >main</text>
<text x="0" y="50" class="d"  >❯</text>
<text x="24" y="50" class="a"  >echo</text>
<text x="84" y="50" class="a"  >hello</text>
<text x="156" y="50" class="a"  >world</text>
<text x="0" y="75" class="a"  >hello</text>
<text x="72" y="75" class="a"  >world</text>
<text x="0" y="125" class="b"  >demo</text>
<text x="60" y="125" class="a"  >on</text>
<text x="96" y="125" class="c"  >main</text>
<text x="0" y="150" class="d"  >❯</text>
<text x="24" y="150" class="a"  >cd</text>
<text x="60" y="150" class="a"  >demo</text>
<text x="0" y="200" class="b"  >demo/demo</text>
<text x="120" y="200" class="a"  >on</text>
<text x="156" y="200" class="c"  >main</text>
<text x="0" y="225" class="d"  >❯</text>
<text x="24" y="225" class="a"  >cat</text>
<text x="72" y="225" class="a"  >basic.txt</text>
<text x="0" y="250" class="a"  >echo</text>
<text x="60" y="250" class="a"  >hello</text>
<text x="132" y="250" class="a"  >world</text>
<text x="0" y="275" class="a"  >cd</text>
<text x="36" y="275" class="a"  >\td\t</text>
<text x="0" y="300" class="a"  >cat</text>
<text x="48" y="300" class="a"  >basic.txt</text>
</g>
<g transform="translate(47000)">
<text x="0" y="25" class="b"  >demo</text>
<text x="60" y="25" class="a"  >on</text>
<text x="96" y="25" class="c"  >main</text>
<text x="0" y="50" class="d"  >❯</text>
<text x="24" y="50" class="a"  >echo</text>
<text x="84" y="50" class="a"  >hello</text>
<text x="156" y="50" class="a"  >world</text>
<text x="0" y="75" class="a"  >hello</text>
<text x="72" y="75" class="a"  >world</text>
<text x="0" y="125" class="b"  >demo</text>
<text x="60" y="125" class="a"  >on</text>
<text x="96" y="125" class="c"  >main</text>
<text x="0" y="150" class="d"  >❯</text>
<text x="24" y="150" class="a"  >cd</text>
<text x="60" y="150" class="a"  >demo</text>
<text x="0" y="200" class="b"  >demo/demo</text>
<text x="120" y="200" class="a"  >on</text>
<text x="156" y="200" class="c"  >main</text>
<text x="0" y="225" class="d"  >❯</text>
<text x="24" y="225" class="a"  >cat</text>
<text x="72" y="225" class="a"  >basic.txt</text>
<text x="0" y="250" class="a"  >echo</text>
<text x="60" y="250" class="a"  >hello</text>
<text x="132" y="250" class="a"  >world</text>
<text x="0" y="275" class="a"  >cd</text>
<text x="36" y="275" class="a"  >\td\t</text>
<text x="0" y="300" class="a"  >cat</text>
<text x="48" y="300" class="a"  >basic.txt</text>
<text x="0" y="350" class="b"  >demo/demo</text>
<text x="120" y="350" class="a"  >on</text>
<text x="156" y="350" class="c"  >main</text>
<text x="0" y="375" class="d"  >❯</text>
</g>
</g>
</g>
</svg>
