<?xml version="1.0"?>
<!-- Generated by SVGo -->
<svg width="2152" height="560"
     xmlns="http://www.w3.org/2000/svg"
     xmlns:xlink="http://www.w3.org/1999/xlink">
<rect x="0" y="0" width="2152" height="560" rx="5" ry="5" style="fill:#282d35" />
<circle cx="20" cy="20" r="7" style="fill:#ff5f58" />
<circle cx="43" cy="20" r="7" style="fill:#ffbd2e" />
<circle cx="66" cy="20" r="7" style="fill:#18c132" />
<g transform="translate(20,60)" >
<g style="animation-duration:19.10s;animation-iteration-count:infinite;animation-name:k;animation-timing-function:steps(1,end);font-family:Monaco,Consolas,Menlo,'Bitstream Vera Sans Mono','Powerline Symbols',monospace;font-size:20px">
<style type="text/css">
<![CDATA[
@keyframes k {0.487%{transform:translateX(-0px)}0.527%{transform:translateX(-2152px)}1.056%{transform:translateX(-4304px)}1.586%{transform:translateX(-6456px)}2.112%{transform:translateX(-8608px)}2.641%{transform:translateX(-10760px)}3.696%{transform:translateX(-12912px)}4.226%{transform:translateX(-15064px)}4.757%{transform:translateX(-17216px)}5.285%{transform:translateX(-19368px)}5.814%{transform:translateX(-21520px)}6.342%{transform:translateX(-23672px)}7.394%{transform:translateX(-25824px)}7.923%{transform:translateX(-27976px)}8.448%{transform:translateX(-30128px)}8.978%{transform:translateX(-32280px)}9.507%{transform:translateX(-34432px)}10.038%{transform:translateX(-36584px)}20.522%{transform:translateX(-38736px)}20.528%{transform:translateX(-40888px)}20.648%{transform:translateX(-43040px)}34.190%{transform:translateX(-45192px)}34.719%{transform:translateX(-47344px)}35.768%{transform:translateX(-49496px)}41.018%{transform:translateX(-51648px)}41.019%{transform:translateX(-53800px)}46.783%{transform:translateX(-55952px)}52.037%{transform:translateX(-58104px)}67.746%{transform:translateX(-60256px)}67.751%{transform:translateX(-62408px)}67.839%{transform:translateX(-64560px)}81.437%{transform:translateX(-66712px)}81.969%{transform:translateX(-68864px)}82.494%{transform:translateX(-71016px)}83.547%{transform:translateX(-73168px)}84.082%{transform:translateX(-75320px)}84.612%{transform:translateX(-77472px)}85.152%{transform:translateX(-79624px)}85.684%{transform:translateX(-81776px)}86.213%{transform:translateX(-83928px)}87.793%{transform:translateX(-86080px)}88.330%{transform:translateX(-88232px)}88.868%{transform:translateX(-90384px)}89.395%{transform:translateX(-92536px)}99.881%{transform:translateX(-94688px)}99.897%{transform:translateX(-96840px)}99.898%{transform:translateX(-98992px)}100.000%{transform:translateX(-101144px)}}.a{fill:#e5e5e5}.b{fill:#00ffff}.c{fill:#ff00ff}.d{fill:#00ff00}
]]>
</style>
<g transform="translate(0)">
</g>
<g transform="translate(2152)">
<text x="0" y="25" class="b"  >demo</text>
<text x="60" y="25" class="a"  >on</text>
<text x="96" y="25" class="c"  >main</text>
<text x="0" y="50" class="d"  >❯</text>
</g>
<g transform="translate(4304)">
<text x="0" y="25" class="b"  >demo</text>
<text x="60" y="25" class="a"  >on</text>
<text x="96" y="25" class="c"  >main</text>
<text x="0" y="50" class="d"  >❯</text>
<text x="24" y="50" class="a"  >e</text>
</g>
<g transform="translate(6456)">
<text x="0" y="25" class="b"  >demo</text>
<text x="60" y="25" class="a"  >on</text>
<text x="96" y="25" class="c"  >main</text>
<text x="0" y="50" class="d"  >❯</text>
<text x="24" y="50" class="a"  >ec</text>
</g>
<g transform="translate(8608)">
<text x="0" y="25" class="b"  >demo</text>
<text x="60" y="25" class="a"  >on</text>
<text x="96" y="25" class="c"  >main</text>
<text x="0" y="50" class="d"  >❯</text>
<text x="24" y="50" class="a"  >ech</text>
</g>
<g transform="translate(10760)">
<text x="0" y="25" class="b"  >demo</text>
<text x="60" y="25" class="a"  >on</text>
<text x="96" y="25" class="c"  >main</text>
<text x="0" y="50" class="d"  >❯</text>
<text x="24" y="50" class="a"  >echo</text>
</g>
<g transform="translate(12912)">
<text x="0" y="25" class="b"  >demo</text>
<text x="60" y="25" class="a"  >on</text>
<text x="96" y="25" class="c"  >main</text>
<text x="0" y="50" class="d"  >❯</text>
<text x="24" y="50" class="a"  >echo</text>
</g>
<g transform="translate(15064)">
<text x="0" y="25" class="b"  >demo</text>
<text x="60" y="25" class="a"  >on</text>
<text x="96" y="25" class="c"  >main</text>
<text x="0" y="50" class="d"  >❯</text>
<text x="24" y="50" class="a"  >echo</text>
<text x="84" y="50" class="a"  >h</text>
</g>
<g transform="translate(17216)">
<text x="0" y="25" class="b"  >demo</text>
<text x="60" y="25" class="a"  >on</text>
<text x="96" y="25" class="c"  >main</text>
<text x="0" y="50" class="d"  >❯</text>
<text x="24" y="50" class="a"  >echo</text>
<text x="84" y="50" class="a"  >he</text>
</g>
<g transform="translate(19368)">
<text x="0" y="25" class="b"  >demo</text>
<text x="60" y="25" class="a"  >on</text>
<text x="96" y="25" class="c"  >main</text>
<text x="0" y="50" class="d"  >❯</text>
<text x="24" y="50" class="a"  >echo</text>
<text x="84" y="50" class="a"  >hel</text>
</g>
<g transform="translate(21520)">
<text x="0" y="25" class="b"  >demo</text>
<text x="60" y="25" class="a"  >on</text>
<text x="96" y="25" class="c"  >main</text>
<text x="0" y="50" class="d"  >❯</text>
<text x="24" y="50" class="a"  >echo</text>
<text x="84" y="50" class="a"  >hell</text>
</g>
<g transform="translate(23672)">
<text x="0" y="25" class="b"  >demo</text>
<text x="60" y="25" class="a"  >on</text>
<text x="96" y="25" class="c"  >main</text>
<text x="0" y="50" class="d"  >❯</text>
<text x="24" y="50" class="a"  >echo</text>
<text x="84" y="50" class="a"  >hello</text>
</g>
<g transform="translate(25824)">
<text x="0" y="25" class="b"  >demo</text>
<text x="60" y="25" class="a"  >on</text>
<text x="96" y="25" class="c"  >main</text>
<text x="0" y="50" class="d"  >❯</text>
<text x="24" y="50" class="a"  >echo</text>
<text x="84" y="50" class="a"  >hello</text>
</g>
<g transform="translate(27976)">
<text x="0" y="25" class="b"  >demo</text>
<text x="60" y="25" class="a"  >on</text>
<text x="96" y="25" class="c"  >main</text>
<text x="0" y="50" class="d"  >❯</text>
<text x="24" y="50" class="a"  >echo</text>
<text x="84" y="50" class="a"  >hello</text>
<text x="156" y="50" class="a"  >w</text>
</g>
<g transform="translate(30128)">
<text x="0" y="25" class="b"  >demo</text>
<text x="60" y="25" class="a"  >on</text>
<text x="96" y="25" class="c"  >main</text>
<text x="0" y="50" class="d"  >❯</text>
<text x="24" y="50" class="a"  >echo</text>
<text x="84" y="50" class="a"  >hello</text>
<text x="156" y="50" class="a"  >wo</text>
</g>
<g transform="translate(32280)">
<text x="0" y="25" class="b"  >demo</text>
<text x="60" y="25" class="a"  >on</text>
<text x="96" y="25" class="c"  >main</text>
<text x="0" y="50" class="d"  >❯</text>
<text x="24" y="50" class="a"  >echo</text>
<text x="84" y="50" class="a"  >hello</text>
<text x="156" y="50" class="a"  >wor</text>
</g>
<g transform="translate(34432)">
<text x="0" y="25" class="b"  >demo</text>
<text x="60" y="25" class="a"  >on</text>
<text x="96" y="25" class="c"  >main</text>
<text x="0" y="50" class="d"  >❯</text>
<text x="24" y="50" class="a"  >echo</text>
<text x="84" y="50" class="a"  >hello</text>
<text x="156" y="50" class="a"  >worl</text>
</g>
<g transform="translate(36584)">
<text x="0" y="25" class="b"  >demo</text>
<text x="60" y="25" class="a"  >on</text>
<text x="96" y="25" class="c"  >main</text>
<text x="0" y="50" class="d"  >❯</text>
<text x="24" y="50" class="a"  >echo</text>
<text x="84" y="50" class="a"  >hello</text>
<text x="156" y="50" class="a"  >world</text>
</g>
<g transform="translate(38736)">
<text x="0" y="25" class="b"  >demo</text>
<text x="60" y="25" class="a"  >on</text>
<text x="96" y="25" class="c"  >main</text>
<text x="0" y="50" class="d"  >❯</text>
<text x="24" y="50" class="a"  >echo</text>
<text x="84" y="50" class="a"  >hello</text>
<text x="156" y="50" class="a"  >world</text>
</g>
<g transform="translate(40888)">
<text x="0" y="25" class="b"  >demo</text>
<text x="60" y="25" class="a"  >on</text>
<text x="96" y="25" class="c"  >main</text>
<text x="0" y="50" class="d"  >❯</text>
<text x="24" y="50" class="a"  >echo</text>
<text x="84" y="50" class="a"  >hello</text>
<text x="156" y="50" class="a"  >world</text>
<text x="0" y="75" class="a"  >hello</text>
<text x="72" y="75" class="a"  >world</text>
</g>
<g transform="translate(43040)">
<text x="0" y="25" class="b"  >demo</text>
<text x="60" y="25" class="a"  >on</text>
<text x="96" y="25" class="c"  >main</text>
<text x="0" y="50" class="d"  >❯</text>
<text x="24" y="50" class="a"  >echo</text>
<text x="84" y="50" class="a"  >hello</text>
<text x="156" y="50" class="a"  >world</text>
<text x="0" y="75" class="a"  >hello</text>
<text x="72" y="75" class="a"  >world</text>
<text x="0" y="125" class="b"  >demo</text>
<text x="60" y="125" class="a"  >on</text>
<text x="96" y="125" class="c"  >main</text>
<text x="0" y="150" class="d"  >❯</text>
</g>
<g transform="translate(45192)">
<text x="0" y="25" class="b"  >demo</text>
<text x="60" y="25" class="a"  >on</text>
<text x="96" y="25" class="c"  >main</text>
<text x="0" y="50" class="d"  >❯</text>
<text x="24" y="50" class="a"  >echo</text>
<text x="84" y="50" class="a"  >hello</text>
<text x="156" y="50" class="a"  >world</text>
<text x="0" y="75" class="a"  >hello</text>
<text x="72" y="75" class="a"  >world</text>
<text x="0" y="125" class="b"  >demo</text>
<text x="60" y="125" class="a"  >on</text>
<text x="96" y="125" class="c"  >main</text>
<text x="0" y="150" class="d"  >❯</text>
<text x="24" y="150" class="a"  >c</text>
</g>
<g transform="translate(47344)">
<text x="0" y="25" class="b"  >demo</text>
<text x="60" y="25" class="a"  >on</text>
<text x="96" y="25" class="c"  >main</text>
<text x="0" y="50" class="d"  >❯</text>
<text x="24" y="50" class="a"  >echo</text>
<text x="84" y="50" class="a"  >hello</text>
<text x="156" y="50" class="a"  >world</text>
<text x="0" y="75" class="a"  >hello</text>
<text x="72" y="75" class="a"  >world</text>
<text x="0" y="125" class="b"  >demo</text>
<text x="60" y="125" class="a"  >on</text>
<text x="96" y="125" class="c"  >main</text>
<text x="0" y="150" class="d"  >❯</text>
<text x="24" y="150" class="a"  >cd</text>
</g>
<g transform="translate(49496)">
<text x="0" y="25" class="b"  >demo</text>
<text x="60" y="25" class="a"  >on</text>
<text x="96" y="25" class="c"  >main</text>
<text x="0" y="50" class="d"  >❯</text>
<text x="24" y="50" class="a"  >echo</text>
<text x="84" y="50" class="a"  >hello</text>
<text x="156" y="50" class="a"  >world</text>
<text x="0" y="75" class="a"  >hello</text>
<text x="72" y="75" class="a"  >world</text>
<text x="0" y="125" class="b"  >demo</text>
<text x="60" y="125" class="a"  >on</text>
<text x="96" y="125" class="c"  >main</text>
<text x="0" y="150" class="d"  >❯</text>
<text x="24" y="150" class="a"  >cd</text>
</g>
<g transform="translate(51648)">
<text x="0" y="25" class="b"  >demo</text>
<text x="60" y="25" class="a"  >on</text>
<text x="96" y="25" class="c"  >main</text>
<text x="0" y="50" class="d"  >❯</text>
<text x="24" y="50" class="a"  >echo</text>
<text x="84" y="50" class="a"  >hello</text>
<text x="156" y="50" class="a"  >world</text>
<text x="0" y="75" class="a"  >hello</text>
<text x="72" y="75" class="a"  >world</text>
<text x="0" y="125" class="b"  >demo</text>
<text x="60" y="125" class="a"  >on</text>
<text x="96" y="125" class="c"  >main</text>
<text x="0" y="150" class="d"  >❯</text>
<text x="24" y="150" class="a"  >cd</text>
</g>
<g transform="translate(53800)">
<text x="0" y="25" class="b"  >demo</text>
<text x="60" y="25" class="a"  >on</text>
<text x="96" y="25" class="c"  >main</text>
<text x="0" y="50" class="d"  >❯</text>
<text x="24" y="50" class="a"  >echo</text>
<text x="84" y="50" class="a"  >hello</text>
<text x="156" y="50" class="a"  >world</text>
<text x="0" y="75" class="a"  >hello</text>
<text x="72" y="75" class="a"  >world</text>
<text x="0" y="125" class="b"  >demo</text>
<text x="60" y="125" class="a"  >on</text>
<text x="96" y="125" class="c"  >main</text>
<text x="0" y="150" class="d"  >❯</text>
<text x="24" y="150" class="a"  >cd</text>
<text x="0" y="175" class="a"  >Dockerfile</text>
<text x="144" y="175" class="a"  >LICENSE</text>
<text x="288" y="175" class="a"  >README.md</text>
<text x="432" y="175" class="a"  >demo/</text>
<text x="576" y="175" class="a"  >script/</text>
</g>
<g transform="translate(55952)">
<text x="0" y="25" class="b"  >demo</text>
<text x="60" y="25" class="a"  >on</text>
<text x="96" y="25" class="c"  >main</text>
<text x="0" y="50" class="d"  >❯</text>
<text x="24" y="50" class="a"  >echo</text>
<text x="84" y="50" class="a"  >hello</text>
<text x="156" y="50" class="a"  >world</text>
<text x="0" y="75" class="a"  >hello</text>
<text x="72" y="75" class="a"  >world</text>
<text x="0" y="125" class="b"  >demo</text>
<text x="60" y="125" class="a"  >on</text>
<text x="96" y="125" class="c"  >main</text>
<text x="0" y="150" class="d"  >❯</text>
<text x="24" y="150" class="a"  >cd</text>
<text x="60" y="150" class="a"  >d</text>
<text x="0" y="175" class="a"  >Dockerfile</text>
<text x="144" y="175" class="a"  >LICENSE</text>
<text x="288" y="175" class="a"  >README.md</text>
<text x="432" y="175" class="a"  >demo/</text>
<text x="576" y="175" class="a"  >script/</text>
</g>
<g transform="translate(58104)">
<text x="0" y="25" class="b"  >demo</text>
<text x="60" y="25" class="a"  >on</text>
<text x="96" y="25" class="c"  >main</text>
<text x="0" y="50" class="d"  >❯</text>
<text x="24" y="50" class="a"  >echo</text>
<text x="84" y="50" class="a"  >hello</text>
<text x="156" y="50" class="a"  >world</text>
<text x="0" y="75" class="a"  >hello</text>
<text x="72" y="75" class="a"  >world</text>
<text x="0" y="125" class="b"  >demo</text>
<text x="60" y="125" class="a"  >on</text>
<text x="96" y="125" class="c"  >main</text>
<text x="0" y="150" class="d"  >❯</text>
<text x="24" y="150" class="a"  >cd</text>
<text x="60" y="150" class="a"  >demo/</text>
<text x="0" y="175" class="a"  >Dockerfile</text>
<text x="144" y="175" class="a"  >LICENSE</text>
<text x="288" y="175" class="a"  >README.md</text>
<text x="432" y="175" class="a"  >demo/</text>
<text x="576" y="175" class="a"  >script/</text>
</g>
<g transform="translate(60256)">
<text x="0" y="25" class="b"  >demo</text>
<text x="60" y="25" class="a"  >on</text>
<text x="96" y="25" class="c"  >main</text>
<text x="0" y="50" class="d"  >❯</text>
<text x="24" y="50" class="a"  >echo</text>
<text x="84" y="50" class="a"  >hello</text>
<text x="156" y="50" class="a"  >world</text>
<text x="0" y="75" class="a"  >hello</text>
<text x="72" y="75" class="a"  >world</text>
<text x="0" y="125" class="b"  >demo</text>
<text x="60" y="125" class="a"  >on</text>
<text x="96" y="125" class="c"  >main</text>
<text x="0" y="150" class="d"  >❯</text>
<text x="24" y="150" class="a"  >cd</text>
<text x="60" y="150" class="a"  >demo</text>
</g>
<g transform="translate(62408)">
<text x="0" y="25" class="b"  >demo</text>
<text x="60" y="25" class="a"  >on</text>
<text x="96" y="25" class="c"  >main</text>
<text x="0" y="50" class="d"  >❯</text>
<text x="24" y="50" class="a"  >echo</text>
<text x="84" y="50" class="a"  >hello</text>
<text x="156" y="50" class="a"  >world</text>
<text x="0" y="75" class="a"  >hello</text>
<text x="72" y="75" class="a"  >world</text>
<text x="0" y="125" class="b"  >demo</text>
<text x="60" y="125" class="a"  >on</text>
<text x="96" y="125" class="c"  >main</text>
<text x="0" y="150" class="d"  >❯</text>
<text x="24" y="150" class="a"  >cd</text>
<text x="60" y="150" class="a"  >demo</text>
</g>
<g transform="translate(64560)">
<text x="0" y="25" class="b"  >demo</text>
<text x="60" y="25" class="a"  >on</text>
<text x="96" y="25" class="c"  >main</text>
<text x="0" y="50" class="d"  >❯</text>
<text x="24" y="50" class="a"  >echo</text>
<text x="84" y="50" class="a"  >hello</text>
<text x="156" y="50" class="a"  >world</text>
<text x="0" y="75" class="a"  >hello</text>
<text x="72" y="75" class="a"  >world</text>
<text x="0" y="125" class="b"  >demo</text>
<text x="60" y="125" class="a"  >on</text>
<text x="96" y="125" class="c"  >main</text>
<text x="0" y="150" class="d"  >❯</text>
<text x="24" y="150" class="a"  >cd</text>
<text x="60" y="150" class="a"  >demo</text>
<text x="0" y="200" class="b"  >demo/demo</text>
<text x="120" y="200" class="a"  >on</text>
<text x="156" y="200" class="c"  >main</text>
<text x="0" y="225" class="d"  >❯</text>
</g>
<g transform="translate(66712)">
<text x="0" y="25" class="b"  >demo</text>
<text x="60" y="25" class="a"  >on</text>
<text x="96" y="25" class="c"  >main</text>
<text x="0" y="50" class="d"  >❯</text>
<text x="24" y="50" class="a"  >echo</text>
<text x="84" y="50" class="a"  >hello</text>
<text x="156" y="50" class="a"  >world</text>
<text x="0" y="75" class="a"  >hello</text>
<text x="72" y="75" class="a"  >world</text>
<text x="0" y="125" class="b"  >demo</text>
<text x="60" y="125" class="a"  >on</text>
<text x="96" y="125" class="c"  >main</text>
<text x="0" y="150" class="d"  >❯</text>
<text x="24" y="150" class="a"  >cd</text>
<text x="60" y="150" class="a"  >demo</text>
<text x="0" y="200" class="b"  >demo/demo</text>
<text x="120" y="200" class="a"  >on</text>
<text x="156" y="200" class="c"  >main</text>
<text x="0" y="225" class="d"  >❯</text>
<text x="24" y="225" class="a"  >c</text>
</g>
<g transform="translate(68864)">
<text x="0" y="25" class="b"  >demo</text>
<text x="60" y="25" class="a"  >on</text>
<text x="96" y="25" class="c"  >main</text>
<text x="0" y="50" class="d"  >❯</text>
<text x="24" y="50" class="a"  >echo</text>
<text x="84" y="50" class="a"  >hello</text>
<text x="156" y="50" class="a"  >world</text>
<text x="0" y="75" class="a"  >hello</text>
<text x="72" y="75" class="a"  >world</text>
<text x="0" y="125" class="b"  >demo</text>
<text x="60" y="125" class="a"  >on</text>
<text x="96" y="125" class="c"  >main</text>
<text x="0" y="150" class="d"  >❯</text>
<text x="24" y="150" class="a"  >cd</text>
<text x="60" y="150" class="a"  >demo</text>
<text x="0" y="200" class="b"  >demo/demo</text>
<text x="120" y="200" class="a"  >on</text>
<text x="156" y="200" class="c"  >main</text>
<text x="0" y="225" class="d"  >❯</text>
<text x="24" y="225" class="a"  >ca</text>
</g>
<g transform="translate(71016)">
<text x="0" y="25" class="b"  >demo</text>
<text x="60" y="25" class="a"  >on</text>
<text x="96" y="25" class="c"  >main</text>
<text x="0" y="50" class="d"  >❯</text>
<text x="24" y="50" class="a"  >echo</text>
<text x="84" y="50" class="a"  >hello</text>
<text x="156" y="50" class="a"  >world</text>
<text x="0" y="75" class="a"  >hello</text>
<text x="72" y="75" class="a"  >world</text>
<text x="0" y="125" class="b"  >demo</text>
<text x="60" y="125" class="a"  >on</text>
<text x="96" y="125" class="c"  >main</text>
<text x="0" y="150" class="d"  >❯</text>
<text x="24" y="150" class="a"  >cd</text>
<text x="60" y="150" class="a"  >demo</text>
<text x="0" y="200" class="b"  >demo/demo</text>
<text x="120" y="200" class="a"  >on</text>
<text x="156" y="200" class="c"  >main</text>
<text x="0" y="225" class="d"  >❯</text>
<text x="24" y="225" class="a"  >cat</text>
</g>
<g transform="translate(73168)">
<text x="0" y="25" class="b"  >demo</text>
<text x="60" y="25" class="a"  >on</text>
<text x="96" y="25" class="c"  >main</text>
<text x="0" y="50" class="d"  >❯</text>
<text x="24" y="50" class="a"  >echo</text>
<text x="84" y="50" class="a"  >hello</text>
<text x="156" y="50" class="a"  >world</text>
<text x="0" y="75" class="a"  >hello</text>
<text x="72" y="75" class="a"  >world</text>
<text x="0" y="125" class="b"  >demo</text>
<text x="60" y="125" class="a"  >on</text>
<text x="96" y="125" class="c"  >main</text>
<text x="0" y="150" class="d"  >❯</text>
<text x="24" y="150" class="a"  >cd</text>
<text x="60" y="150" class="a"  >demo</text>
<text x="0" y="200" class="b"  >demo/demo</text>
<text x="120" y="200" class="a"  >on</text>
<text x="156" y="200" class="c"  >main</text>
<text x="0" y="225" class="d"  >❯</text>
<text x="24" y="225" class="a"  >cat</text>
</g>
<g transform="translate(75320)">
<text x="0" y="25" class="b"  >demo</text>
<text x="60" y="25" class="a"  >on</text>
<text x="96" y="25" class="c"  >main</text>
<text x="0" y="50" class="d"  >❯</text>
<text x="24" y="50" class="a"  >echo</text>
<text x="84" y="50" class="a"  >hello</text>
<text x="156" y="50" class="a"  >world</text>
<text x="0" y="75" class="a"  >hello</text>
<text x="72" y="75" class="a"  >world</text>
<text x="0" y="125" class="b"  >demo</text>
<text x="60" y="125" class="a"  >on</text>
<text x="96" y="125" class="c"  >main</text>
<text x="0" y="150" class="d"  >❯</text>
<text x="24" y="150" class="a"  >cd</text>
<text x="60" y="150" class="a"  >demo</text>
<text x="0" y="200" class="b"  >demo/demo</text>
<text x="120" y="200" class="a"  >on</text>
<text x="156" y="200" class="c"  >main</text>
<text x="0" y="225" class="d"  >❯</text>
<text x="24" y="225" class="a"  >cat</text>
<text x="72" y="225" class="a"  >b</text>
</g>
<g transform="translate(77472)">
<text x="0" y="25" class="b"  >demo</text>
<text x="60" y="25" class="a"  >on</text>
<text x="96" y="25" class="c"  >main</text>
<text x="0" y="50" class="d"  >❯</text>
<text x="24" y="50" class="a"  >echo</text>
<text x="84" y="50" class="a"  >hello</text>
<text x="156" y="50" class="a"  >world</text>
<text x="0" y="75" class="a"  >hello</text>
<text x="72" y="75" class="a"  >world</text>
<text x="0" y="125" class="b"  >demo</text>
<text x="60" y="125" class="a"  >on</text>
<text x="96" y="125" class="c"  >main</text>
<text x="0" y="150" class="d"  >❯</text>
<text x="24" y="150" class="a"  >cd</text>
<text x="60" y="150" class="a"  >demo</text>
<text x="0" y="200" class="b"  >demo/demo</text>
<text x="120" y="200" class="a"  >on</text>
<text x="156" y="200" class="c"  >main</text>
<text x="0" y="225" class="d"  >❯</text>
<text x="24" y="225" class="a"  >cat</text>
<text x="72" y="225" class="a"  >ba</text>
</g>
<g transform="translate(79624)">
<text x="0" y="25" class="b"  >demo</text>
<text x="60" y="25" class="a"  >on</text>
<text x="96" y="25" class="c"  >main</text>
<text x="0" y="50" class="d"  >❯</text>
<text x="24" y="50" class="a"  >echo</text>
<text x="84" y="50" class="a"  >hello</text>
<text x="156" y="50" class="a"  >world</text>
<text x="0" y="75" class="a"  >hello</text>
<text x="72" y="75" class="a"  >world</text>
<text x="0" y="125" class="b"  >demo</text>
<text x="60" y="125" class="a"  >on</text>
<text x="96" y="125" class="c"  >main</text>
<text x="0" y="150" class="d"  >❯</text>
<text x="24" y="150" class="a"  >cd</text>
<text x="60" y="150" class="a"  >demo</text>
<text x="0" y="200" class="b"  >demo/demo</text>
<text x="120" y="200" class="a"  >on</text>
<text x="156" y="200" class="c"  >main</text>
<text x="0" y="225" class="d"  >❯</text>
<text x="24" y="225" class="a"  >cat</text>
<text x="72" y="225" class="a"  >bas</text>
</g>
<g transform="translate(81776)">
<text x="0" y="25" class="b"  >demo</text>
<text x="60" y="25" class="a"  >on</text>
<text x="96" y="25" class="c"  >main</text>
<text x="0" y="50" class="d"  >❯</text>
<text x="24" y="50" class="a"  >echo</text>
<text x="84" y="50" class="a"  >hello</text>
<text x="156" y="50" class="a"  >world</text>
<text x="0" y="75" class="a"  >hello</text>
<text x="72" y="75" class="a"  >world</text>
<text x="0" y="125" class="b"  >demo</text>
<text x="60" y="125" class="a"  >on</text>
<text x="96" y="125" class="c"  >main</text>
<text x="0" y="150" class="d"  >❯</text>
<text x="24" y="150" class="a"  >cd</text>
<text x="60" y="150" class="a"  >demo</text>
<text x="0" y="200" class="b"  >demo/demo</text>
<text x="120" y="200" class="a"  >on</text>
<text x="156" y="200" class="c"  >main</text>
<text x="0" y="225" class="d"  >❯</text>
<text x="24" y="225" class="a"  >cat</text>
<text x="72" y="225" class="a"  >basi</text>
</g>
<g transform="translate(83928)">
<text x="0" y="25" class="b"  >demo</text>
<text x="60" y="25" class="a"  >on</text>
<text x="96" y="25" class="c"  >main</text>
<text x="0" y="50" class="d"  >❯</text>
<text x="24" y="50" class="a"  >echo</text>
<text x="84" y="50" class="a"  >hello</text>
<text x="156" y="50" class="a"  >world</text>
<text x="0" y="75" class="a"  >hello</text>
<text x="72" y="75" class="a"  >world</text>
<text x="0" y="125" class="b"  >demo</text>
<text x="60" y="125" class="a"  >on</text>
<text x="96" y="125" class="c"  >main</text>
<text x="0" y="150" class="d"  >❯</text>
<text x="24" y="150" class="a"  >cd</text>
<text x="60" y="150" class="a"  >demo</text>
<text x="0" y="200" class="b"  >demo/demo</text>
<text x="120" y="200" class="a"  >on</text>
<text x="156" y="200" class="c"  >main</text>
<text x="0" y="225" class="d"  >❯</text>
<text x="24" y="225" class="a"  >cat</text>
<text x="72" y="225" class="a"  >basic</text>
</g>
<g transform="translate(86080)">
<text x="0" y="25" class="b"  >demo</text>
<text x="60" y="25" class="a"  >on</text>
<text x="96" y="25" class="c"  >main</text>
<text x="0" y="50" class="d"  >❯</text>
<text x="24" y="50" class="a"  >echo</text>
<text x="84" y="50" class="a"  >hello</text>
<text x="156" y="50" class="a"  >world</text>
<text x="0" y="75" class="a"  >hello</text>
<text x="72" y="75" class="a"  >world</text>
<text x="0" y="125" class="b"  >demo</text>
<text x="60" y="125" class="a"  >on</text>
<text x="96" y="125" class="c"  >main</text>
<text x="0" y="150" class="d"  >❯</text>
<text x="24" y="150" class="a"  >cd</text>
<text x="60" y="150" class="a"  >demo</text>
<text x="0" y="200" class="b"  >demo/demo</text>
<text x="120" y="200" class="a"  >on</text>
<text x="156" y="200" class="c"  >main</text>
<text x="0" y="225" class="d"  >❯</text>
<text x="24" y="225" class="a"  >cat</text>
<text x="72" y="225" class="a"  >basic.</text>
</g>
<g transform="translate(88232)">
<text x="0" y="25" class="b"  >demo</text>
<text x="60" y="25" class="a"  >on</text>
<text x="96" y="25" class="c"  >main</text>
<text x="0" y="50" class="d"  >❯</text>
<text x="24" y="50" class="a"  >echo</text>
<text x="84" y="50" class="a"  >hello</text>
<text x="156" y="50" class="a"  >world</text>
<text x="0" y="75" class="a"  >hello</text>
<text x="72" y="75" class="a"  >world</text>
<text x="0" y="125" class="b"  >demo</text>
<text x="60" y="125" class="a"  >on</text>
<text x="96" y="125" class="c"  >main</text>
<text x="0" y="150" class="d"  >❯</text>
<text x="24" y="150" class="a"  >cd</text>
<text x="60" y="150" class="a"  >demo</text>
<text x="0" y="200" class="b"  >demo/demo</text>
<text x="120" y="200" class="a"  >on</text>
<text x="156" y="200" class="c"  >main</text>
<text x="0" y="225" class="d"  >❯</text>
<text x="24" y="225" class="a"  >cat</text>
<text x="72" y="225" class="a"  >basic.t</text>
</g>
<g transform="translate(90384)">
<text x="0" y="25" class="b"  >demo</text>
<text x="60" y="25" class="a"  >on</text>
<text x="96" y="25" class="c"  >main</text>
<text x="0" y="50" class="d"  >❯</text>
<text x="24" y="50" class="a"  >echo</text>
<text x="84" y="50" class="a"  >hello</text>
<text x="156" y="50" class="a"  >world</text>
<text x="0" y="75" class="a"  >hello</text>
<text x="72" y="75" class="a"  >world</text>
<text x="0" y="125" class="b"  >demo</text>
<text x="60" y="125" class="a"  >on</text>
<text x="96" y="125" class="c"  >main</text>
<text x="0" y="150" class="d"  >❯</text>
<text x="24" y="150" class="a"  >cd</text>
<text x="60" y="150" class="a"  >demo</text>
<text x="0" y="200" class="b"  >demo/demo</text>
<text x="120" y="200" class="a"  >on</text>
<text x="156" y="200" class="c"  >main</text>
<text x="0" y="225" class="d"  >❯</text>
<text x="24" y="225" class="a"  >cat</text>
<text x="72" y="225" class="a"  >basic.tx</text>
</g>
<g transform="translate(92536)">
<text x="0" y="25" class="b"  >demo</text>
<text x="60" y="25" class="a"  >on</text>
<text x="96" y="25" class="c"  >main</text>
<text x="0" y="50" class="d"  >❯</text>
<text x="24" y="50" class="a"  >echo</text>
<text x="84" y="50" class="a"  >hello</text>
<text x="156" y="50" class="a"  >world</text>
<text x="0" y="75" class="a"  >hello</text>
<text x="72" y="75" class="a"  >world</text>
<text x="0" y="125" class="b"  >demo</text>
<text x="60" y="125" class="a"  >on</text>
<text x="96" y="125" class="c"  >main</text>
<text x="0" y="150" class="d"  >❯</text>
<text x="24" y="150" class="a"  >cd</text>
<text x="60" y="150" class="a"  >demo</text>
<text x="0" y="200" class="b"  >demo/demo</text>
<text x="120" y="200" class="a"  >on</text>
<text x="156" y="200" class="c"  >main</text>
<text x="0" y="225" class="d"  >❯</text>
<text x="24" y="225" class="a"  >cat</text>
<text x="72" y="225" class="a"  >basic.txt</text>
</g>
<g transform="translate(94688)">
<text x="0" y="25" class="b"  >demo</text>
<text x="60" y="25" class="a"  >on</text>
<text x="96" y="25" class="c"  >main</text>
<text x="0" y="50" class="d"  >❯</text>
<text x="24" y="50" class="a"  >echo</text>
<text x="84" y="50" class="a"  >hello</text>
<text x="156" y="50" class="a"  >world</text>
<text x="0" y="75" class="a"  >hello</text>
<text x="72" y="75" class="a"  >world</text>
<text x="0" y="125" class="b"  >demo</text>
<text x="60" y="125" class="a"  >on</text>
<text x="96" y="125" class="c"  >main</text>
<text x="0" y="150" class="d"  >❯</text>
<text x="24" y="150" class="a"  >cd</text>
<text x="60" y="150" class="a"  >demo</text>
<text x="0" y="200" class="b"  >demo/demo</text>
<text x="120" y="200" class="a"  >on</text>
<text x="156" y="200" class="c"  >main</text>
<text x="0" y="225" class="d"  >❯</text>
<text x="24" y="225" class="a"  >cat</text>
<text x="72" y="225" class="a"  >basic.txt</text>
</g>
<g transform="translate(96840)">
<text x="0" y="25" class="b"  >demo</text>
<text x="60" y="25" class="a"  >on</text>
<text x="96" y="25" class="c"  >main</text>
<text x="0" y="50" class="d"  >❯</text>
<text x="24" y="50" class="a"  >echo</text>
<text x="84" y="50" class="a"  >hello</text>
<text x="156" y="50" class="a"  >world</text>
<text x="0" y="75" class="a"  >hello</text>
<text x="72" y="75" class="a"  >world</text>
<text x="0" y="125" class="b"  >demo</text>
<text x="60" y="125" class="a"  >on</text>
<text x="96" y="125" class="c"  >main</text>
<text x="0" y="150" class="d"  >❯</text>
<text x="24" y="150" class="a"  >cd</text>
<text x="60" y="150" class="a"  >demo</text>
<text x="0" y="200" class="b"  >demo/demo</text>
<text x="120" y="200" class="a"  >on</text>
<text x="156" y="200" class="c"  >main</text>
<text x="0" y="225" class="d"  >❯</text>
<text x="24" y="225" class="a"  >cat</text>
<text x="72" y="225" class="a"  >basic.txt</text>
<text x="0" y="250" class="a"  >echo</text>
<text x="60" y="250" class="a"  >hello</text>
<text x="132" y="250" class="a"  >world</text>
<text x="0" y="275" class="a"  >cd</text>
<text x="36" y="275" class="a"  >\td\t</text>
<text x="0" y="300" class="a"  >cat</text>
<text x="48" y="300" class="a"  >basic.txt</text>
</g>
<g transform="translate(98992)">
<text x="0" y="25" class="b"  >demo</text>
<text x="60" y="25" class="a"  >on</text>
<text x="96" y="25" class="c"  >main</text>
<text x="0" y="50" class="d"  >❯</text>
<text x="24" y="50" class="a"  >echo</text>
<text x="84" y="50" class="a"  >hello</text>
<text x="156" y="50" class="a"  >world</text>
<text x="0" y="75" class="a"  >hello</text>
<text x="72" y="75" class="a"  >world</text>
<text x="0" y="125" class="b"  >demo</text>
<text x="60" y="125" class="a"  >on</text>
<text x="96" y="125" class="c"  >main</text>
<text x="0" y="150" class="d"  >❯</text>
<text x="24" y="150" class="a"  >cd</text>
<text x="60" y="150" class="a"  >demo</text>
<text x="0" y="200" class="b"  >demo/demo</text>
<text x="120" y="200" class="a"  >on</text>
<text x="156" y="200" class="c"  >main</text>
<text x="0" y="225" class="d"  >❯</text>
<text x="24" y="225" class="a"  >cat</text>
<text x="72" y="225" class="a"  >basic.txt</text>
<text x="0" y="250" class="a"  >echo</text>
<text x="60" y="250" class="a"  >hello</text>
<text x="132" y="250" class="a"  >world</text>
<text x="0" y="275" class="a"  >cd</text>
<text x="36" y="275" class="a"  >\td\t</text>
<text x="0" y="300" class="a"  >cat</text>
<text x="48" y="300" class="a"  >basic.txt</text>
</g>
<g transform="translate(101144)">
<text x="0" y="25" class="b"  >demo</text>
<text x="60" y="25" class="a"  >on</text>
<text x="96" y="25" class="c"  >main</text>
<text x="0" y="50" class="d"  >❯</text>
<text x="24" y="50" class="a"  >echo</text>
<text x="84" y="50" class="a"  >hello</text>
<text x="156" y="50" class="a"  >world</text>
<text x="0" y="75" class="a"  >hello</text>
<text x="72" y="75" class="a"  >world</text>
<text x="0" y="125" class="b"  >demo</text>
<text x="60" y="125" class="a"  >on</text>
<text x="96" y="125" class="c"  >main</text>
<text x="0" y="150" class="d"  >❯</text>
<text x="24" y="150" class="a"  >cd</text>
<text x="60" y="150" class="a"  >demo</text>
<text x="0" y="200" class="b"  >demo/demo</text>
<text x="120" y="200" class="a"  >on</text>
<text x="156" y="200" class="c"  >main</text>
<text x="0" y="225" class="d"  >❯</text>
<text x="24" y="225" class="a"  >cat</text>
<text x="72" y="225" class="a"  >basic.txt</text>
<text x="0" y="250" class="a"  >echo</text>
<text x="60" y="250" class="a"  >hello</text>
<text x="132" y="250" class="a"  >world</text>
<text x="0" y="275" class="a"  >cd</text>
<text x="36" y="275" class="a"  >\td\t</text>
<text x="0" y="300" class="a"  >cat</text>
<text x="48" y="300" class="a"  >basic.txt</text>
<text x="0" y="350" class="b"  >demo/demo</text>
<text x="120" y="350" class="a"  >on</text>
<text x="156" y="350" class="c"  >main</text>
<text x="0" y="375" class="d"  >❯</text>
</g>
</g>
</g>
</svg>
